<svg width="60" height="60" viewBox="0 0 60 60" fill="none" xmlns="http://www.w3.org/2000/svg">
<path d="M59.5 30C59.5 46.2924 46.2924 59.5 30 59.5C13.7076 59.5 0.5 46.2924 0.5 30C0.5 13.7076 13.7076 0.5 30 0.5C46.2924 0.5 59.5 13.7076 59.5 30Z" fill="white" stroke="#C23373"/>
<path d="M57.7562 0.557683C57.601 0.387139 57.4128 0.249833 57.203 0.154066C56.9932 0.0582978 56.7662 0.00605573 56.5357 0.000495924C56.3051 -0.00506388 56.0759 0.036174 55.8617 0.121718C55.6476 0.207262 55.453 0.335336 55.2898 0.4982L53.9758 1.80576C53.8166 1.96511 53.7271 2.18116 53.7271 2.40643C53.7271 2.6317 53.8166 2.84776 53.9758 3.0071L55.1803 4.20951C55.2593 4.28883 55.3532 4.35178 55.4565 4.39473C55.5599 4.43768 55.6707 4.45979 55.7826 4.45979C55.8945 4.45979 56.0054 4.43768 56.1087 4.39473C56.2121 4.35178 56.3059 4.28883 56.3849 4.20951L57.6659 2.93487C58.3138 2.288 58.3744 1.2343 57.7562 0.557683ZM51.3193 4.46125L32.1445 23.602C32.0283 23.7178 31.9438 23.8615 31.8992 24.0194L31.0122 26.6611C30.991 26.7328 30.9895 26.8089 31.0079 26.8813C31.0263 26.9538 31.0639 27.0199 31.1168 27.0728C31.1696 27.1257 31.2358 27.1633 31.3082 27.1817C31.3807 27.2001 31.4568 27.1986 31.5285 27.1773L34.168 26.2904C34.3259 26.2458 34.4697 26.1613 34.5855 26.045L53.7262 6.86818C53.9033 6.6892 54.0026 6.44759 54.0026 6.19581C54.0026 5.94403 53.9033 5.70242 53.7262 5.52344L52.6693 4.46125C52.4901 4.28255 52.2474 4.1822 51.9943 4.1822C51.7412 4.1822 51.4985 4.28255 51.3193 4.46125Z" fill="#ED696B"/>
<path d="M46.9383 19.6739L33.9912 32.6465C33.4908 33.1481 32.8758 33.5203 32.1993 33.731L29.4482 34.6519C28.7953 34.8363 28.105 34.8432 27.4486 34.672C26.7921 34.5008 26.1931 34.1577 25.7134 33.678C25.2337 33.1983 24.8905 32.5993 24.7193 31.9428C24.5482 31.2863 24.5551 30.5961 24.7395 29.9432L25.6604 27.1921C25.8704 26.5158 26.2419 25.9008 26.7428 25.4002L39.7154 12.451C39.8343 12.3322 39.9153 12.1808 39.9482 12.016C39.981 11.8512 39.9643 11.6803 39.9001 11.525C39.8358 11.3697 39.727 11.2369 39.5873 11.1434C39.4476 11.05 39.2833 11.0001 39.1152 11H16.9483C15.3707 11 13.8577 11.6267 12.7422 12.7422C11.6267 13.8577 11 15.3707 11 16.9483V42.4409C11 44.0185 11.6267 45.5315 12.7422 46.647C13.8577 47.7625 15.3707 48.3892 16.9483 48.3892H42.4409C44.0185 48.3892 45.5315 47.7625 46.647 46.647C47.7625 45.5315 48.3892 44.0185 48.3892 42.4409V20.274C48.3892 20.1059 48.3392 19.9417 48.2458 19.802C48.1524 19.6623 48.0196 19.5534 47.8643 19.4892C47.709 19.4249 47.5381 19.4082 47.3733 19.4411C47.2084 19.4739 47.0571 19.555 46.9383 19.6739Z" fill="#ED696B"/>
</svg>
