<svg width="51" height="49" viewBox="0 0 51 49" fill="none" xmlns="http://www.w3.org/2000/svg">
<path d="M35.9934 4.08297C38.7988 4.09105 41.4868 5.16924 43.4705 7.08206C45.4541 8.99488 46.5722 11.5869 46.5806 14.292V34.708C46.5722 37.4131 45.4541 40.0051 43.4705 41.9179C41.4868 43.8308 38.7988 44.909 35.9934 44.917H14.8214C12.016 44.909 9.32802 43.8308 7.34436 41.9179C5.36069 40.0051 4.24257 37.4131 4.23419 34.708V14.292C4.24257 11.5869 5.36069 8.99488 7.34436 7.08206C9.32802 5.16924 12.016 4.09105 14.8214 4.08297H35.9934ZM35.9934 0H14.8214C6.66944 0 0 6.43125 0 14.292V34.708C0 42.5687 6.66944 49 14.8214 49H35.9934C44.1454 49 50.8148 42.5687 50.8148 34.708V14.292C50.8148 6.43125 44.1454 0 35.9934 0Z" fill="white"/>
<path d="M38.6296 13.4816C38.0143 13.4816 37.4128 13.2991 36.9012 12.9573C36.3895 12.6154 35.9908 12.1295 35.7553 11.561C35.5198 10.9925 35.4582 10.367 35.5782 9.76347C35.6983 9.15997 35.9946 8.60562 36.4297 8.17051C36.8648 7.73541 37.4192 7.4391 38.0227 7.31906C38.6262 7.19901 39.2517 7.26063 39.8202 7.4961C40.3887 7.73158 40.8746 8.13034 41.2164 8.64197C41.5583 9.15359 41.7408 9.7551 41.7408 10.3704C41.7416 10.7792 41.6618 11.1842 41.5057 11.5621C41.3497 11.9399 41.1206 12.2832 40.8315 12.5723C40.5424 12.8614 40.1991 13.0905 39.8212 13.2465C39.4434 13.4026 39.0384 13.4825 38.6296 13.4816ZM25.1483 15.5549C26.7893 15.5549 28.3934 16.0415 29.7578 16.9532C31.1222 17.8649 32.1856 19.1606 32.8136 20.6767C33.4415 22.1927 33.6058 23.8609 33.2857 25.4703C32.9656 27.0797 32.1754 28.5581 31.015 29.7184C29.8547 30.8787 28.3764 31.6689 26.767 31.9891C25.1575 32.3092 23.4893 32.1449 21.9733 31.5169C20.4573 30.889 19.1615 29.8255 18.2498 28.4611C17.3382 27.0967 16.8516 25.4927 16.8516 23.8517C16.8539 21.652 17.7288 19.543 19.2842 17.9876C20.8397 16.4322 22.9486 15.5573 25.1483 15.5549ZM25.1483 11.4071C22.687 11.4071 20.281 12.137 18.2345 13.5044C16.188 14.8718 14.5929 16.8154 13.651 19.0894C12.7091 21.3633 12.4627 23.8655 12.9429 26.2795C13.423 28.6935 14.6083 30.911 16.3487 32.6514C18.0891 34.3918 20.3065 35.577 22.7205 36.0572C25.1345 36.5374 27.6367 36.2909 29.9107 35.349C32.1846 34.4071 34.1282 32.8121 35.4956 30.7656C36.8631 28.7191 37.5929 26.313 37.5929 23.8517C37.5929 20.5512 36.2818 17.3859 33.948 15.052C31.6142 12.7182 28.4489 11.4071 25.1483 11.4071Z" fill="white"/>
</svg>
