<svg width="50" height="49" viewBox="0 0 50 49" fill="none" xmlns="http://www.w3.org/2000/svg">
<path d="M45.3774 0H4.48326C2.24873 0 0.296387 1.60781 0.296387 3.81609V44.8011C0.296387 47.0214 2.24873 49 4.48326 49H45.3654C47.6119 49 49.2963 47.0083 49.2963 44.8011V3.81609C49.3094 1.60781 47.6119 0 45.3774 0ZM15.4853 40.8439H8.46559V19.0181H15.4853V40.8439ZM12.2182 15.6997H12.1679C9.92137 15.6997 8.46669 14.0273 8.46669 11.9339C8.46669 9.80219 9.95965 8.16922 12.2565 8.16922C14.5534 8.16922 15.9589 9.79016 16.0092 11.9339C16.0081 14.0273 14.5534 15.6997 12.2182 15.6997ZM41.1402 40.8439H34.1206V28.91C34.1206 26.0509 33.099 24.0975 30.5593 24.0975C28.619 24.0975 27.4706 25.41 26.9598 26.6886C26.7684 27.148 26.717 27.7736 26.717 28.4123V40.8439H19.6973V19.0181H26.717V22.0555C27.7385 20.6008 29.3343 18.5073 33.0476 18.5073C37.6555 18.5073 41.1413 21.5447 41.1413 28.093L41.1402 40.8439Z" fill="white"/>
</svg>
