<?xml version="1.0" encoding="utf-8"?>
<!-- Generator: Adobe Illustrator 25.4.1, SVG Export Plug-In . SVG Version: 6.00 Build 0)  -->
<svg version="1.1" id="Capa_1" xmlns="http://www.w3.org/2000/svg" xmlns:xlink="http://www.w3.org/1999/xlink" x="0px" y="0px"
	 viewBox="0 0 347.9 129.9" style="enable-background:new 0 0 347.9 129.9;" xml:space="preserve">
<style type="text/css">
	.st0{enable-background:new    ;}
	.st1{fill:#020203;}
	.st2{fill:#E94445;}
	.st3{fill:#FFFFFF;}
</style>
<g>
	<g class="st0">
		<path class="st1" d="M76.1,45.5h-7.3v-1.2h15.7v1.2h-7.3v23.2h-1.2V45.5z"/>
		<path class="st1" d="M104.1,57.1H89.6v11.7h-1.1V44.3h1.1v11.6h14.5V44.3h1.1v24.4h-1.1V57.1z"/>
		<path class="st1" d="M110.9,44.3h13.5v1.2H112v10.4h12v1.2h-12v10.5h12.3v1.2h-13.5V44.3z"/>
	</g>
	<g class="st0">
		<path class="st1" d="M70.4,79.7h9.9c3.5,0,6.4,0.7,8.7,2.1c2.3,1.4,4,3.4,5.2,5.8c1.1,2.5,1.7,5.3,1.7,8.5c0,3.2-0.6,6.1-1.7,8.6
			c-1.2,2.5-2.9,4.4-5.2,5.8c-2.3,1.4-5.2,2.1-8.7,2.1h-9.9V79.7z M77.8,86.3V106h1.8c1.9,0,3.4-0.4,4.7-1.3c1.2-0.9,2.2-2,2.8-3.5
			c0.6-1.5,0.9-3.2,0.9-5c0-1.9-0.3-3.6-0.9-5.1c-0.6-1.5-1.5-2.7-2.8-3.5c-1.2-0.9-2.8-1.3-4.7-1.3H77.8z"/>
		<path class="st1" d="M109.6,79.7h7.4l13,33h-8l-2.4-6.6H107l-2.4,6.6h-8L109.6,79.7z M109.5,99.5h7.7l-3.8-10.8h-0.1L109.5,99.5z"
			/>
		<path class="st1" d="M135.7,86.2h-7.9v-6.5H151v6.5h-7.8v26.5h-7.5V86.2z"/>
		<path class="st1" d="M155.3,79.7h7.5v33h-7.5V79.7z"/>
		<path class="st1" d="M175.5,86.5l0.5,0.1v26h-7.5v-33h10.2l13.4,26l-0.5,0.1V79.7h7.5v33h-10.2L175.5,86.5z"/>
		<path class="st1" d="M220.3,94.2h16.8v2.1c0,2.4-0.4,4.6-1.2,6.6c-0.8,2-1.9,3.8-3.4,5.4s-3.2,2.8-5.2,3.6s-4.3,1.3-6.8,1.3
			c-2.5,0-4.9-0.4-6.9-1.3s-3.9-2.1-5.4-3.7s-2.7-3.4-3.5-5.5c-0.8-2.1-1.2-4.3-1.2-6.7c0-2.4,0.4-4.6,1.2-6.7s2-3.9,3.5-5.5
			c1.5-1.6,3.3-2.8,5.4-3.6s4.4-1.3,6.9-1.3c2.1,0,3.9,0.2,5.5,0.7s3,1,4.1,1.8c1.2,0.8,2.1,1.6,2.9,2.5c0.8,0.9,1.5,1.8,2,2.6
			L228,90c-0.7-1-1.6-2-2.8-2.8c-1.2-0.8-2.7-1.2-4.7-1.2c-1.3,0-2.6,0.3-3.7,0.8c-1.1,0.5-2.1,1.3-2.9,2.2s-1.4,2-1.9,3.2
			c-0.4,1.2-0.7,2.5-0.7,3.9c0,1.4,0.2,2.7,0.7,3.9s1.1,2.3,1.9,3.2c0.8,0.9,1.8,1.7,2.9,2.2c1.1,0.5,2.4,0.8,3.7,0.8
			c1.2,0,2.3-0.2,3.2-0.5c1-0.3,1.8-0.7,2.5-1.3c0.7-0.6,1.3-1.2,1.7-2c0.4-0.8,0.7-1.6,0.7-2.6h-8.4V94.2z"/>
		<path class="st1" d="M254.9,79.7h7.5v26.5h12v6.5h-19.5V79.7z"/>
		<path class="st1" d="M289.9,79.7h7.4l13,33h-8L300,106h-12.7l-2.4,6.6h-8L289.9,79.7z M289.8,99.5h7.7l-3.8-10.8h-0.1L289.8,99.5z
			"/>
		<path class="st1" d="M313.2,79.7h11.3c1.9,0,3.6,0.3,5.2,0.8s2.9,1.4,3.9,2.5c1,1.2,1.5,2.8,1.5,4.8c0,1.3-0.2,2.5-0.7,3.5
			c-0.5,1-1.1,1.9-2,2.5s-1.7,1.1-2.6,1.3c0.8,0.1,1.6,0.3,2.4,0.7c0.8,0.4,1.5,0.9,2.2,1.6s1.2,1.5,1.5,2.4c0.4,1,0.6,2.1,0.6,3.5
			c0,1.8-0.4,3.5-1.2,4.9c-0.8,1.4-2,2.5-3.6,3.3c-1.6,0.8-3.5,1.2-5.8,1.2h-12.7V79.7z M320.6,92.9h3c0.9,0,1.6-0.2,2.2-0.5
			s1-0.8,1.3-1.3c0.3-0.6,0.5-1.2,0.5-2c0-1.3-0.4-2.3-1.2-2.7s-1.8-0.7-3.1-0.7h-2.8V92.9z M320.6,106.7h3.4c1.1,0,1.9-0.2,2.6-0.5
			c0.7-0.3,1.2-0.8,1.5-1.4c0.3-0.6,0.5-1.3,0.5-2.2c0-1.3-0.4-2.3-1.2-2.9s-2-0.9-3.5-0.9h-3.3V106.7z"/>
	</g>
	<g>
		<path class="st1" d="M31.8,115c-3.5,0-6.9-1.4-9.4-3.9c-2.5-2.5-3.9-5.9-3.9-9.4V59.1c0-0.5,0.2-0.9,0.5-1.3
			c0.3-0.3,0.8-0.5,1.3-0.5c0.5,0,0.9,0.2,1.3,0.5c0.3,0.3,0.5,0.8,0.5,1.3v42.6c0,2.6,1,5,2.8,6.8c1.8,1.8,4.3,2.8,6.9,2.8
			c2.6,0,5-1,6.9-2.8s2.8-4.3,2.8-6.8V46.9H22.2v5.7c0,0.5-0.2,0.9-0.5,1.3c-0.3,0.3-0.8,0.5-1.3,0.5c-0.5,0-0.9-0.2-1.3-0.5
			c-0.3-0.3-0.5-0.8-0.5-1.3v-7.5c0-0.2,0-0.5,0.1-0.7s0.2-0.4,0.4-0.6c0.2-0.2,0.4-0.3,0.6-0.4c0.2-0.1,0.5-0.1,0.7-0.1h23
			c0.5,0,0.9,0.2,1.3,0.5c0.3,0.3,0.5,0.8,0.5,1.3v56.6c0,3.5-1.4,6.9-3.9,9.4C38.8,113.6,35.4,115,31.8,115z"/>
		<path class="st2" d="M24.3,70.2v31.5c0,2,0.8,3.9,2.2,5.3c1.4,1.4,3.3,2.2,5.4,2.2s3.9-0.8,5.4-2.2c1.4-1.4,2.2-3.3,2.2-5.3V70.2
			H24.3z"/>
		<path class="st2" d="M42,29.2c0-0.7-0.3-1.3-0.7-1.8c-0.4-0.5-1-0.9-1.7-1c-0.7-0.1-1.4,0-2,0.3c-0.6,0.3-1.1,0.8-1.4,1.4
			c-0.3-0.6-0.8-1.1-1.4-1.4c-0.6-0.3-1.3-0.4-2-0.3c-0.7,0.1-1.3,0.5-1.7,1c-0.4,0.5-0.7,1.2-0.7,1.8c0,0.7,0.3,1.4,0.7,1.9
			c0.1,0.1,0.2,0.2,0.3,0.3l4.5,4.5c0,0,0.1,0,0.1,0c0,0,0.1,0,0.1,0l4.7-4.7c0.3-0.3,0.5-0.6,0.7-1C41.9,29.9,42,29.6,42,29.2
			L42,29.2z"/>
		<path class="st2" d="M28.4,17.3c0-0.5-0.2-1-0.5-1.4c-0.3-0.4-0.8-0.7-1.2-0.8c-0.5-0.1-1-0.1-1.5,0.2c-0.5,0.2-0.8,0.6-1,1.1
			c-0.2-0.5-0.7-0.9-1.2-1.1s-1.1-0.2-1.6,0c-0.5,0.2-0.9,0.6-1.2,1.1C20,16.9,20,17.4,20.2,18c0.1,0.3,0.2,0.5,0.4,0.7l0.2,0.2
			l3.4,3.3c0,0,0,0,0,0c0,0,0,0,0,0h0.1l3.5-3.5c0.2-0.2,0.4-0.4,0.5-0.7S28.5,17.5,28.4,17.3L28.4,17.3z"/>
		<path class="st2" d="M36.3,57c0-0.5-0.2-1-0.5-1.4c-0.3-0.4-0.8-0.7-1.3-0.8s-1.1,0-1.5,0.2c-0.5,0.2-0.8,0.6-1.1,1.1
			c-0.2-0.5-0.6-0.9-1.1-1.1c-0.5-0.2-1-0.3-1.5-0.2c-0.5,0.1-1,0.4-1.3,0.8c-0.3,0.4-0.5,0.9-0.5,1.4c0,0.3,0,0.5,0.1,0.8
			c0.1,0.3,0.2,0.5,0.4,0.7c0.1,0.1,0.2,0.2,0.3,0.2l3.5,3.5c0,0,0,0,0.1,0c0,0,0.1,0,0.1,0l3.7-3.6c0.2-0.2,0.4-0.5,0.5-0.7
			C36.3,57.6,36.3,57.3,36.3,57L36.3,57z"/>
		<path class="st3" d="M35.4,93.5c0-0.4-0.1-0.8-0.4-1.1c-0.3-0.3-0.6-0.5-1-0.6c-0.4-0.1-0.8,0-1.2,0.1c-0.4,0.2-0.6,0.5-0.8,0.8
			c-0.2-0.4-0.5-0.7-0.8-0.8s-0.8-0.2-1.2-0.1c-0.4,0.1-0.7,0.3-1,0.6c-0.3,0.3-0.4,0.7-0.4,1.1c0,0.2,0,0.4,0.1,0.6
			c0.1,0.2,0.2,0.4,0.3,0.6c0.1,0.1,0.1,0.1,0.2,0.2l2.7,2.7c0,0,0,0,0.1,0c0,0,0,0,0,0c0,0,0,0,0,0l2.8-2.8
			c0.2-0.2,0.3-0.4,0.4-0.6C35.4,93.8,35.5,93.6,35.4,93.5z"/>
		<path class="st3" d="M30.7,77.6c0-0.2-0.1-0.4-0.2-0.6c-0.1-0.2-0.3-0.3-0.5-0.3c-0.2,0-0.4,0-0.6,0.1c-0.2,0.1-0.3,0.2-0.4,0.4
			c-0.1-0.2-0.2-0.3-0.4-0.4c-0.2-0.1-0.4-0.1-0.6-0.1s-0.4,0.2-0.5,0.3s-0.2,0.4-0.2,0.6c0,0.1,0,0.2,0.1,0.3
			c0,0.1,0.1,0.2,0.2,0.3c0,0,0.1,0.1,0.1,0.1l1.4,1.4c0,0,0,0,0,0c0,0,0,0,0,0c0,0,0,0,0,0l1.4-1.4c0.1-0.1,0.2-0.2,0.2-0.3
			C30.7,77.8,30.7,77.7,30.7,77.6z"/>
	</g>
</g>
</svg>
