<?xml version="1.0" encoding="utf-8"?>
<!-- Generator: Adobe Illustrator 25.4.1, SVG Export Plug-In . SVG Version: 6.00 Build 0)  -->
<svg version="1.1" id="Capa_1" xmlns="http://www.w3.org/2000/svg" xmlns:xlink="http://www.w3.org/1999/xlink" x="0px" y="0px"
	 viewBox="0 0 1296.1 230.4" style="enable-background:new 0 0 1296.1 230.4;" xml:space="preserve">
<style type="text/css">
	.st0{fill:#EFDAE2;}
	.st1{enable-background:new    ;}
	.st2{fill:#020203;}
	.st3{fill:#E94445;}
	.st4{fill:#FFFFFF;}
</style>
<rect x="-13.4" y="-17.4" class="st0" width="1320.8" height="261.1"/>
<g>
	<g class="st1">
		<path class="st2" d="M525.5,90.5h-8.8V89h19v1.5h-8.8v28h-1.5v-28H525.5z"/>
		<path class="st2" d="M559.4,104.5h-17.5v14.1h-1.3V89h1.3v14h17.5V89h1.3v29.5h-1.3V104.5z"/>
		<path class="st2" d="M567.6,89h16.3v1.5h-15V103h14.5v1.5h-14.5v12.7h14.9v1.5h-16.3V89H567.6z"/>
	</g>
	<g class="st1">
		<path class="st2" d="M518.6,131.8h12c4.2,0,7.7,0.8,10.5,2.5c2.8,1.7,4.8,4.1,6.3,7c1.3,3,2.1,6.4,2.1,10.3
			c0,3.9-0.7,7.4-2.1,10.4c-1.5,3-3.5,5.3-6.3,7c-2.8,1.7-6.3,2.5-10.5,2.5h-12V131.8z M527.6,139.8v23.8h2.2c2.3,0,4.1-0.5,5.7-1.6
			c1.5-1.1,2.7-2.4,3.4-4.2s1.1-3.9,1.1-6c0-2.3-0.4-4.4-1.1-6.2s-1.8-3.3-3.4-4.2c-1.5-1.1-3.4-1.6-5.7-1.6
			C529.7,139.8,527.6,139.8,527.6,139.8z"/>
		<path class="st2" d="M566,131.8h8.9l15.7,39.9H581l-2.9-8h-15.2l-2.9,8h-9.7L566,131.8z M565.9,155.7h9.3l-4.6-13.1h-0.1
			L565.9,155.7z"/>
		<path class="st2" d="M597.5,139.7H588v-7.9h28v7.9h-9.4v32h-9.1V139.7z"/>
		<path class="st2" d="M621.2,131.8h9.1v39.9h-9.1V131.8z"/>
		<path class="st2" d="M645.6,140l0.6,0.1v31.4h-9.1v-39.9h12.3l16.2,31.4l-0.6,0.1v-31.4h9.1v39.9h-12.3L645.6,140z"/>
		<path class="st2" d="M699.8,149.3h20.3v2.5c0,2.9-0.5,5.6-1.5,8s-2.3,4.6-4.1,6.5s-3.9,3.4-6.3,4.4s-5.2,1.6-8.2,1.6
			c-3,0-5.9-0.5-8.3-1.6c-2.4-1.1-4.7-2.5-6.5-4.5c-1.8-1.9-3.3-4.1-4.2-6.6c-1-2.5-1.5-5.2-1.5-8.1c0-2.9,0.5-5.6,1.5-8.1
			s2.4-4.7,4.2-6.6c1.8-1.9,4-3.4,6.5-4.4c2.5-1,5.3-1.6,8.3-1.6c2.5,0,4.7,0.2,6.6,0.8c1.9,0.6,3.6,1.2,5,2.2c1.5,1,2.5,1.9,3.5,3
			c1,1.1,1.8,2.2,2.4,3.1l-8.5,4.2c-0.8-1.2-1.9-2.4-3.4-3.4s-3.3-1.5-5.7-1.5c-1.6,0-3.1,0.4-4.5,1c-1.3,0.6-2.5,1.6-3.5,2.7
			c-1,1.1-1.7,2.4-2.3,3.9c-0.5,1.5-0.8,3-0.8,4.7c0,1.7,0.2,3.3,0.8,4.7s1.3,2.8,2.3,3.9c1,1.1,2.2,2.1,3.5,2.7s2.9,1,4.5,1
			c1.5,0,2.8-0.2,3.9-0.6c1.2-0.4,2.2-0.8,3-1.6c0.8-0.7,1.6-1.5,2.1-2.4c0.5-1,0.8-1.9,0.8-3.1h-10.2v-6.8H699.8z"/>
		<path class="st2" d="M741.6,131.8h9.1v32h14.5v7.9h-23.6V131.8z"/>
		<path class="st2" d="M783.9,131.8h8.9l15.7,39.9h-9.7l-2.8-8.1h-15.3l-2.9,8h-9.7L783.9,131.8z M783.8,155.7h9.3l-4.6-13.1h-0.1
			L783.8,155.7z"/>
		<path class="st2" d="M812,131.8h13.7c2.3,0,4.4,0.4,6.3,1s3.5,1.7,4.7,3c1.2,1.5,1.8,3.4,1.8,5.8c0,1.6-0.2,3-0.8,4.2
			c-0.6,1.2-1.3,2.3-2.4,3c-1.1,0.7-2.1,1.3-3.1,1.6c1,0.1,1.9,0.4,2.9,0.8c1,0.5,1.8,1.1,2.7,1.9c0.8,0.8,1.5,1.8,1.8,2.9
			c0.5,1.2,0.7,2.5,0.7,4.2c0,2.2-0.5,4.2-1.5,5.9c-1,1.7-2.4,3-4.4,4s-4.2,1.5-7,1.5H812L812,131.8L812,131.8z M821,147.8h3.6
			c1.1,0,1.9-0.2,2.7-0.6s1.2-1,1.6-1.6c0.4-0.7,0.6-1.5,0.6-2.4c0-1.6-0.5-2.8-1.5-3.3c-1-0.5-2.2-0.8-3.7-0.8h-3.4v8.7H821z
			 M821,164.4h4.1c1.3,0,2.3-0.2,3.1-0.6s1.5-1,1.8-1.7c0.4-0.7,0.6-1.6,0.6-2.7c0-1.6-0.5-2.8-1.5-3.5c-1-0.7-2.4-1.1-4.2-1.1h-4
			V164.4z"/>
	</g>
	<g>
		<path class="st2" d="M472,174.5c-4.2,0-8.3-1.7-11.4-4.7c-3-3-4.7-7.1-4.7-11.4v-51.5c0-0.6,0.2-1.1,0.6-1.6
			c0.4-0.4,1-0.6,1.6-0.6s1.1,0.2,1.6,0.6c0.4,0.4,0.6,1,0.6,1.6v51.5c0,3.1,1.2,6,3.4,8.2c2.2,2.2,5.2,3.4,8.3,3.4s6-1.2,8.3-3.4
			c2.3-2.2,3.4-5.2,3.4-8.2V92.2h-23.3v6.9c0,0.6-0.2,1.1-0.6,1.6c-0.4,0.4-1,0.6-1.6,0.6s-1.1-0.2-1.6-0.6c-0.4-0.4-0.6-1-0.6-1.6
			V90c0-0.2,0-0.6,0.1-0.8c0.1-0.2,0.2-0.5,0.5-0.7s0.5-0.4,0.7-0.5c0.2-0.1,0.6-0.1,0.8-0.1H486c0.6,0,1.1,0.2,1.6,0.6
			c0.4,0.4,0.6,1,0.6,1.6v68.4c0,4.2-1.7,8.3-4.7,11.4C480.4,172.8,476.3,174.5,472,174.5z"/>
		<path class="st3" d="M462.9,120.3v38.1c0,2.4,1,4.7,2.7,6.4c1.7,1.7,4,2.7,6.5,2.7s4.7-1,6.5-2.7c1.7-1.7,2.7-4,2.7-6.4v-38.1
			H462.9z"/>
		<path class="st3" d="M484.3,70.8c0-0.8-0.4-1.6-0.8-2.2c-0.5-0.6-1.2-1.1-2.1-1.2s-1.7,0-2.4,0.4c-0.7,0.4-1.3,1-1.7,1.7
			c-0.4-0.7-1-1.3-1.7-1.7s-1.6-0.5-2.4-0.4c-0.8,0.1-1.6,0.6-2.1,1.2c-0.5,0.6-0.8,1.5-0.8,2.2c0,0.8,0.4,1.7,0.8,2.3
			c0.1,0.1,0.2,0.2,0.4,0.4l5.4,5.4h0.1h0.1l5.7-5.7c0.4-0.4,0.6-0.7,0.8-1.2C484.2,71.6,484.3,71.3,484.3,70.8L484.3,70.8z"/>
		<path class="st3" d="M467.9,56.4c0-0.6-0.2-1.2-0.6-1.7s-1-0.8-1.5-1c-0.6-0.1-1.2-0.1-1.8,0.2c-0.6,0.2-1,0.7-1.2,1.3
			c-0.2-0.6-0.8-1.1-1.5-1.3s-1.3-0.2-1.9,0c-0.6,0.2-1.1,0.7-1.5,1.3c-0.2,0.6-0.2,1.2,0,1.9c0.1,0.4,0.2,0.6,0.5,0.8l0.2,0.2
			l4.1,4l0,0l0,0h0.1l4.2-4.2c0.2-0.2,0.5-0.5,0.6-0.8S468,56.6,467.9,56.4L467.9,56.4z"/>
		<path class="st3" d="M477.4,104.4c0-0.6-0.2-1.2-0.6-1.7c-0.4-0.5-1-0.8-1.6-1c-0.6-0.1-1.3,0-1.8,0.2c-0.6,0.2-1,0.7-1.3,1.3
			c-0.2-0.6-0.7-1.1-1.3-1.3s-1.2-0.4-1.8-0.2c-0.6,0.1-1.2,0.5-1.6,1c-0.4,0.5-0.6,1.1-0.6,1.7c0,0.4,0,0.6,0.1,1
			c0.1,0.4,0.2,0.6,0.5,0.8c0.1,0.1,0.2,0.2,0.4,0.2l4.2,4.2c0,0,0,0,0.1,0h0.1l4.5-4.4c0.2-0.2,0.5-0.6,0.6-0.8
			C477.4,105.1,477.4,104.7,477.4,104.4L477.4,104.4z"/>
		<path class="st4" d="M476.3,148.5c0-0.5-0.1-1-0.5-1.3c-0.4-0.4-0.7-0.6-1.2-0.7c-0.5-0.1-1,0-1.5,0.1c-0.5,0.2-0.7,0.6-1,1
			c-0.2-0.5-0.6-0.8-1-1c-0.4-0.1-1-0.2-1.5-0.1c-0.5,0.1-0.8,0.4-1.2,0.7s-0.5,0.8-0.5,1.3c0,0.2,0,0.5,0.1,0.7
			c0.1,0.2,0.2,0.5,0.4,0.7c0.1,0.1,0.1,0.1,0.2,0.2l3.3,3.3c0,0,0,0,0.1,0l0,0l0,0l3.4-3.4c0.2-0.2,0.4-0.5,0.5-0.7
			C476.3,148.9,476.4,148.6,476.3,148.5z"/>
		<path class="st4" d="M470.6,129.3c0-0.2-0.1-0.5-0.2-0.7c-0.1-0.2-0.4-0.4-0.6-0.4s-0.5,0-0.7,0.1c-0.2,0.1-0.4,0.2-0.5,0.5
			c-0.1-0.2-0.2-0.4-0.5-0.5c-0.2-0.1-0.5-0.1-0.7-0.1s-0.5,0.2-0.6,0.4c-0.1,0.1-0.2,0.5-0.2,0.7c0,0.1,0,0.2,0.1,0.4
			c0,0.1,0.1,0.2,0.2,0.4l0.1,0.1l1.7,1.7l0,0l0,0l0,0l1.7-1.7c0.1-0.1,0.2-0.2,0.2-0.4C470.6,129.5,470.6,129.4,470.6,129.3z"/>
	</g>
</g>
</svg>
