<?xml version="1.0" encoding="utf-8"?>
<!-- Generator: Adobe Illustrator 25.4.1, SVG Export Plug-In . SVG Version: 6.00 Build 0)  -->
<svg version="1.1" id="Capa_1" xmlns="http://www.w3.org/2000/svg" xmlns:xlink="http://www.w3.org/1999/xlink" x="0px" y="0px"
	 viewBox="0 0 1296.1 368.2" style="enable-background:new 0 0 1296.1 368.2;" xml:space="preserve">
<style type="text/css">
	.st0{fill:#FFFFFF;}
	.st1{enable-background:new    ;}
	.st2{fill:#020203;}
	.st3{fill:#E94445;}
</style>
<rect x="-23.8" y="-13.6" class="st0" width="1331.2" height="393"/>
<g>
	<g class="st1">
		<path class="st2" d="M458.6,147.6H445v-2.2h29.3v2.2h-13.6V191h-2.2v-43.3H458.6z"/>
		<path class="st2" d="M510.9,169.3h-27.1v21.9h-2.1v-45.8h2.1v21.7h27.1v-21.7h2.1V191h-2.1V169.3z"/>
		<path class="st2" d="M523.6,145.4h25.2v2.2h-23.2v19.4h22.4v2.2h-22.4v19.6h23v2.2h-25.2v-45.8H523.6z"/>
	</g>
	<g class="st1">
		<path class="st2" d="M448,211.5h18.5c6.5,0,12,1.3,16.3,3.9c4.3,2.6,7.5,6.4,9.7,10.8c2.1,4.7,3.2,9.9,3.2,15.9
			s-1.1,11.4-3.2,16.1c-2.2,4.7-5.4,8.2-9.7,10.8c-4.3,2.6-9.7,3.9-16.3,3.9H448V211.5z M461.8,223.8v36.8h3.4
			c3.5,0,6.4-0.7,8.8-2.4c2.2-1.7,4.1-3.7,5.2-6.5c1.1-2.8,1.7-6,1.7-9.3c0-3.5-0.6-6.7-1.7-9.5s-2.8-5-5.2-6.5
			c-2.2-1.7-5.2-2.4-8.8-2.4C465.2,223.8,461.8,223.8,461.8,223.8z"/>
		<path class="st2" d="M521.2,211.5H535l24.3,61.7h-14.9l-4.5-12.3h-23.5l-4.5,12.3h-14.9L521.2,211.5z M521,248.5h14.4l-7.1-20.2
			h-0.2L521,248.5z"/>
		<path class="st2" d="M570,223.7h-14.8v-12.1h43.3v12.1H584v49.5h-14V223.7z"/>
		<path class="st2" d="M606.6,211.5h14v61.7h-14V211.5z"/>
		<path class="st2" d="M644.3,224.2l0.9,0.2V273h-14v-61.7h19.1l25,48.6l-0.9,0.2v-48.6h14v61.7h-19.1L644.3,224.2z"/>
		<path class="st2" d="M728,238.6h31.4v3.9c0,4.5-0.7,8.6-2.2,12.3c-1.5,3.7-3.5,7.1-6.4,10.1s-6,5.2-9.7,6.7
			c-3.7,1.5-8,2.4-12.7,2.4c-4.7,0-9.2-0.7-12.9-2.4c-3.7-1.7-7.3-3.9-10.1-6.9c-2.8-3-5-6.4-6.5-10.3c-1.5-3.9-2.2-8-2.2-12.5
			c0-4.5,0.7-8.6,2.2-12.5c1.5-3.9,3.7-7.3,6.5-10.3c2.8-3,6.2-5.2,10.1-6.7c3.9-1.5,8.2-2.4,12.9-2.4c3.9,0,7.3,0.4,10.3,1.3
			c3,0.9,5.6,1.9,7.7,3.4c2.2,1.5,3.9,3,5.4,4.7c1.5,1.7,2.8,3.4,3.7,4.9l-13.1,6.5c-1.3-1.9-3-3.7-5.2-5.2s-5-2.2-8.8-2.2
			c-2.4,0-4.9,0.6-6.9,1.5c-2.1,0.9-3.9,2.4-5.4,4.1s-2.6,3.7-3.5,6c-0.7,2.2-1.3,4.7-1.3,7.3s0.4,5,1.3,7.3c0.9,2.2,2.1,4.3,3.5,6
			s3.4,3.2,5.4,4.1s4.5,1.5,6.9,1.5c2.2,0,4.3-0.4,6-0.9c1.9-0.6,3.4-1.3,4.7-2.4c1.3-1.1,2.4-2.2,3.2-3.7c0.7-1.5,1.3-3,1.3-4.9
			h-15.7v-10.5H728z"/>
		<path class="st2" d="M792.7,211.5h14V261h22.4v12.1h-36.4V211.5z"/>
		<path class="st2" d="M858,211.5h13.8l24.3,61.7h-14.9l-4.3-12.5h-23.7l-4.5,12.3h-14.9L858,211.5z M857.9,248.5h14.4l-7.1-20.2
			H865L857.9,248.5z"/>
		<path class="st2" d="M901.6,211.5h21.1c3.5,0,6.7,0.6,9.7,1.5s5.4,2.6,7.3,4.7c1.9,2.2,2.8,5.2,2.8,9c0,2.4-0.4,4.7-1.3,6.5
			s-2.1,3.5-3.7,4.7c-1.7,1.1-3.2,2.1-4.9,2.4c1.5,0.2,3,0.6,4.5,1.3s2.8,1.7,4.1,3s2.2,2.8,2.8,4.5c0.7,1.9,1.1,3.9,1.1,6.5
			c0,3.4-0.7,6.5-2.2,9.2c-1.5,2.6-3.7,4.7-6.7,6.2c-3,1.5-6.5,2.2-10.8,2.2h-23.7L901.6,211.5L901.6,211.5z M915.4,236.2h5.6
			c1.7,0,3-0.4,4.1-0.9c1.1-0.6,1.9-1.5,2.4-2.4c0.6-1.1,0.9-2.2,0.9-3.7c0-2.4-0.7-4.3-2.2-5s-3.4-1.3-5.8-1.3h-5.2v13.5H915.4z
			 M915.4,262h6.4c2.1,0,3.5-0.4,4.9-0.9s2.2-1.5,2.8-2.6c0.6-1.1,0.9-2.4,0.9-4.1c0-2.4-0.7-4.3-2.2-5.4s-3.7-1.7-6.5-1.7h-6.2V262
			z"/>
	</g>
	<g>
		<path class="st2" d="M375.9,277.5c-6.5,0-12.9-2.6-17.6-7.3c-4.7-4.7-7.3-11-7.3-17.6V173c0-0.9,0.4-1.7,0.9-2.4
			c0.6-0.6,1.5-0.9,2.4-0.9c0.9,0,1.7,0.4,2.4,0.9c0.6,0.6,0.9,1.5,0.9,2.4v79.6c0,4.9,1.9,9.3,5.2,12.7c3.4,3.4,8,5.2,12.9,5.2
			c4.9,0,9.3-1.9,12.9-5.2c3.5-3.4,5.2-8,5.2-12.7V150.2h-36.1v10.6c0,0.9-0.4,1.7-0.9,2.4c-0.6,0.6-1.5,0.9-2.4,0.9
			c-0.9,0-1.7-0.4-2.4-0.9c-0.6-0.6-0.9-1.5-0.9-2.4v-14c0-0.4,0-0.9,0.2-1.3c0.2-0.4,0.4-0.7,0.7-1.1c0.4-0.4,0.7-0.6,1.1-0.7
			c0.4-0.2,0.9-0.2,1.3-0.2h43c0.9,0,1.7,0.4,2.4,0.9c0.6,0.6,0.9,1.5,0.9,2.4v105.7c0,6.5-2.6,12.9-7.3,17.6
			C388.9,274.9,382.6,277.5,375.9,277.5z"/>
		<path class="st3" d="M361.8,193.8v58.8c0,3.7,1.5,7.3,4.1,9.9s6.2,4.1,10.1,4.1s7.3-1.5,10.1-4.1c2.6-2.6,4.1-6.2,4.1-9.9v-58.8
			H361.8z"/>
		<path class="st3" d="M394.9,117.2c0-1.3-0.6-2.4-1.3-3.4c-0.7-0.9-1.9-1.7-3.2-1.9s-2.6,0-3.7,0.6s-2.1,1.5-2.6,2.6
			c-0.6-1.1-1.5-2.1-2.6-2.6c-1.1-0.6-2.4-0.7-3.7-0.6s-2.4,0.9-3.2,1.9c-0.7,0.9-1.3,2.2-1.3,3.4c0,1.3,0.6,2.6,1.3,3.5
			c0.2,0.2,0.4,0.4,0.6,0.6l8.4,8.4h0.2h0.2l8.8-8.8c0.6-0.6,0.9-1.1,1.3-1.9C394.7,118.5,394.9,117.9,394.9,117.2L394.9,117.2z"/>
		<path class="st3" d="M369.5,94.9c0-0.9-0.4-1.9-0.9-2.6c-0.6-0.7-1.5-1.3-2.2-1.5c-0.9-0.2-1.9-0.2-2.8,0.4
			c-0.9,0.4-1.5,1.1-1.9,2.1c-0.4-0.9-1.3-1.7-2.2-2.1s-2.1-0.4-3,0s-1.7,1.1-2.2,2.1c-0.4,0.9-0.4,1.9,0,3c0.2,0.6,0.4,0.9,0.7,1.3
			l0.4,0.4l6.4,6.2l0,0l0,0h0.2l6.5-6.5c0.4-0.4,0.7-0.7,0.9-1.3C369.5,95.7,369.7,95.3,369.5,94.9L369.5,94.9z"/>
		<path class="st3" d="M384.3,169.1c0-0.9-0.4-1.9-0.9-2.6c-0.6-0.7-1.5-1.3-2.4-1.5c-0.9-0.2-2.1,0-2.8,0.4
			c-0.9,0.4-1.5,1.1-2.1,2.1c-0.4-0.9-1.1-1.7-2.1-2.1c-0.9-0.4-1.9-0.6-2.8-0.4c-0.9,0.2-1.9,0.7-2.4,1.5c-0.6,0.7-0.9,1.7-0.9,2.6
			c0,0.6,0,0.9,0.2,1.5s0.4,0.9,0.7,1.3c0.2,0.2,0.4,0.4,0.6,0.4l6.5,6.5c0,0,0,0,0.2,0h0.2l6.9-6.7c0.4-0.4,0.7-0.9,0.9-1.3
			C384.3,170.2,384.3,169.7,384.3,169.1L384.3,169.1z"/>
		<path class="st0" d="M382.6,237.3c0-0.7-0.2-1.5-0.7-2.1c-0.6-0.6-1.1-0.9-1.9-1.1c-0.7-0.2-1.5,0-2.2,0.2
			c-0.7,0.4-1.1,0.9-1.5,1.5c-0.4-0.7-0.9-1.3-1.5-1.5c-0.6-0.2-1.5-0.4-2.2-0.2c-0.7,0.2-1.3,0.6-1.9,1.1c-0.6,0.6-0.7,1.3-0.7,2.1
			c0,0.4,0,0.7,0.2,1.1s0.4,0.7,0.6,1.1c0.2,0.2,0.2,0.2,0.4,0.4l5,5c0,0,0,0,0.2,0l0,0l0,0l5.2-5.2c0.4-0.4,0.6-0.7,0.7-1.1
			C382.6,237.9,382.8,237.5,382.6,237.3z"/>
		<path class="st0" d="M373.8,207.6c0-0.4-0.2-0.7-0.4-1.1c-0.2-0.4-0.6-0.6-0.9-0.6c-0.4,0-0.7,0-1.1,0.2c-0.4,0.2-0.6,0.4-0.7,0.7
			c-0.2-0.4-0.4-0.6-0.7-0.7c-0.4-0.2-0.7-0.2-1.1-0.2s-0.7,0.4-0.9,0.6c-0.2,0.2-0.4,0.7-0.4,1.1c0,0.2,0,0.4,0.2,0.6
			c0,0.2,0.2,0.4,0.4,0.6l0.2,0.2l2.6,2.6l0,0l0,0l0,0l2.6-2.6c0.2-0.2,0.4-0.4,0.4-0.6C373.8,208,373.8,207.8,373.8,207.6z"/>
	</g>
</g>
</svg>
