<?xml version="1.0" encoding="utf-8"?>
<!-- Generator: Adobe Illustrator 25.4.1, SVG Export Plug-In . SVG Version: 6.00 Build 0)  -->
<svg version="1.1" id="Capa_1" xmlns="http://www.w3.org/2000/svg" xmlns:xlink="http://www.w3.org/1999/xlink" x="0px" y="0px"
	 viewBox="0 0 554.6 554.6" style="enable-background:new 0 0 554.6 554.6;" xml:space="preserve">
<style type="text/css">
	.st0{fill:#FFFFFF;}
</style>
<g>
	<path class="st0" d="M506.8,319.4L506.8,319.4l0,72.7c0,74.6-65,143.4-143.4,143.4c-72.7,0-114.8-40.2-149.2-95.6
		C139.6,313.7,86.1,256.3,107.1,235.2c21-21,72.7,24.9,112.8,66.9V86.1c0-15.3,13.4-28.7,28.7-28.7s28.7,13.4,28.7,28.7v200.8h19.1
		v-66.9c0-15.3,13.4-28.7,28.7-28.7s28.7,13.4,28.7,28.7v47.8h19.1v-28.7c0-15.3,13.4-28.7,28.7-28.7s28.7,13.4,28.7,28.7v47.8h19.1
		v-9.6c0-15.3,13.4-28.7,28.7-28.7s28.7,13.4,28.7,28.7V319.4z"/>
	<path d="M478.1,229.5c-11.5,0-21,3.8-28.7,9.6c0-26.8-21-47.8-47.8-47.8c-11.5,0-23,3.8-32.5,11.5c-7.6-19.1-24.9-30.6-44-30.6
		c-11.5,0-21,3.8-28.7,9.6V95.6h130.4l-61.2,61.2l13.4,15.3l86.1-86.1L379,0l-15.3,15.3l63.1,61.2H295.5
		c-4.3-22.1-23.4-38.2-46.9-38.2c-22.9,0-42.1,17.2-45.9,38.2H66.9l61.2-61.2L114.8,0L28.7,86.1l86.1,86.1l15.3-15.3L66.9,95.6
		h133.9v160.6c-38.2-34.4-80.3-61.2-107.1-34.4C55.5,260.1,135.8,334.7,197,447.5c44,78.4,105.2,107.1,166.4,107.1
		c89.9,0,162.6-72.7,162.6-162.6V277.3C525.9,250.5,504.9,229.5,478.1,229.5z M506.8,319.4L506.8,319.4l0,72.7
		c0,74.6-65,143.4-143.4,143.4c-72.7,0-114.8-40.2-149.2-95.6C139.6,313.7,86.1,256.3,107.1,235.2c21-21,72.7,24.9,112.8,66.9V86.1
		c0-15.3,13.4-28.7,28.7-28.7s28.7,13.4,28.7,28.7v200.8h19.1v-66.9c0-15.3,13.4-28.7,28.7-28.7s28.7,13.4,28.7,28.7v47.8h19.1
		v-28.7c0-15.3,13.4-28.7,28.7-28.7s28.7,13.4,28.7,28.7v47.8h19.1v-9.6c0-15.3,13.4-28.7,28.7-28.7s28.7,13.4,28.7,28.7V319.4z"/>
</g>
</svg>
