<svg width="54" height="41" viewBox="0 0 54 41" fill="none" xmlns="http://www.w3.org/2000/svg">
<path d="M53.2964 4.85808C51.3083 5.6934 49.2048 6.24372 47.0523 6.49166C49.3144 5.21082 51.0155 3.17598 51.8367 0.768765C49.698 1.97804 47.3621 2.82652 44.929 3.27787C43.9044 2.23956 42.6722 1.41356 41.3073 0.850066C39.9423 0.286575 38.4731 -0.00263438 36.9889 1.8081e-05C30.9801 1.8081e-05 26.1173 4.63386 26.1173 10.3461C26.1131 11.1406 26.2072 11.9328 26.3978 12.7057C22.089 12.5104 17.8698 11.4475 14.0101 9.58508C10.1505 7.72265 6.73532 5.10168 3.9832 1.88986C3.01769 3.46378 2.50707 5.25958 2.50472 7.08958C2.50472 10.6771 4.44032 13.8482 7.36305 15.706C5.63142 15.6662 3.93527 15.223 2.4186 14.414V14.5422C2.4186 19.5604 6.17276 23.7351 11.1415 24.6854C10.2071 24.9262 9.2443 25.0482 8.2773 25.0484C7.59115 25.0495 6.90656 24.9852 6.23349 24.8562C7.6148 28.9669 11.6351 31.9564 16.3973 32.0418C12.5277 34.9256 7.77669 36.4843 2.89118 36.4728C2.02399 36.4716 1.1576 36.4217 0.296387 36.3233C5.26644 39.3922 11.0437 41.0154 16.9406 40.9999C36.9658 40.9999 47.9058 25.2299 47.9058 11.5526C47.9058 11.1041 47.8937 10.6557 47.8716 10.218C49.995 8.7574 51.832 6.94235 53.2964 4.85808Z" fill="white"/>
</svg>
